<svg xmlns="http://www.w3.org/2000/svg" viewBox="0 0 32 32"><defs><style>.cls-1{fill:#98c144;}.cls-2{fill:#eddd7f;}.cls-3{fill:#ce8155;}.cls-4{fill:#e78c65;}.cls-5{fill:none;}.cls-6{fill:#d8e7f5;}.cls-7{fill:#eac72c;}.cls-8{fill:#efd155;}</style></defs><g id="레이어_2" data-name="레이어 2"><g id="레이어_1-2" data-name="레이어 1"><path class="cls-1" d="M2.45,16A13.54,13.54,0,0,0,16,29.55V16Z"/><path class="cls-2" d="M15.77,29.55A13.54,13.54,0,0,0,29.32,16H15.77Z"/><path class="cls-3" d="M29.32,16.23A13.54,13.54,0,0,0,15.77,2.68V16.23Z"/><path class="cls-4" d="M16,2.68A13.54,13.54,0,0,0,2.45,16.23H16Z"/><circle class="cls-5" cx="15.89" cy="16.11" r="13.55"/><path class="cls-6" d="M22.55,16.11a6.67,6.67,0,1,0-6.66,6.67A6.57,6.57,0,0,0,18,22.44a3.16,3.16,0,0,0,4.58-2.84,3,3,0,0,0-.34-1.4A6.59,6.59,0,0,0,22.55,16.11Z"/><circle class="cls-7" cx="15.89" cy="16.11" r="3.17"/><circle class="cls-8" cx="16" cy="16" r="16"/><path class="cls-1" d="M2.45,16A13.54,13.54,0,0,0,16,29.55V16Z"/><path class="cls-2" d="M15.77,29.55A13.54,13.54,0,0,0,29.32,16H15.77Z"/><path class="cls-3" d="M29.32,16.23A13.54,13.54,0,0,0,15.77,2.68V16.23Z"/><path class="cls-4" d="M16,2.68A13.54,13.54,0,0,0,2.45,16.23H16Z"/><circle class="cls-5" cx="15.89" cy="16.11" r="13.55"/><path class="cls-6" d="M22.55,16.11a6.67,6.67,0,1,0-6.66,6.67A6.57,6.57,0,0,0,18,22.44a3.16,3.16,0,0,0,4.58-2.84,3,3,0,0,0-.34-1.4A6.59,6.59,0,0,0,22.55,16.11Z"/><circle class="cls-7" cx="15.89" cy="16.11" r="3.17"/></g></g></svg>