<svg xmlns="http://www.w3.org/2000/svg" xmlns:xlink="http://www.w3.org/1999/xlink" viewBox="0 0 369.51 350.69"><defs><style>.cls-1{fill:none;}.cls-2{fill:#0e0f11;}.cls-2,.cls-3{stroke:#0e0f11;}.cls-15,.cls-16,.cls-2,.cls-3,.cls-4,.cls-5{stroke-miterlimit:10;stroke-width:0.57px;}.cls-3{fill:#262727;}.cls-15,.cls-16,.cls-3,.cls-4{fill-rule:evenodd;}.cls-4{fill:#3d3d3d;}.cls-15,.cls-16,.cls-4,.cls-5{stroke:#2b2a29;}.cls-5{fill:#484647;}.cls-6{opacity:0.98;}.cls-7{fill:#98c144;}.cls-8{fill:#eddd7f;}.cls-9{fill:#ce8155;}.cls-10{fill:#e78c65;}.cls-11{fill:#d8e7f5;}.cls-12{fill:#eac72c;}.cls-13{fill:#efd155;}.cls-14{clip-path:url(#clip-path);}.cls-15{fill:#424242;}.cls-16{fill:#3b3b39;}</style><clipPath id="clip-path" transform="translate(-11.11)"><rect class="cls-1" y="165.89" width="402.75" height="110.25"/></clipPath></defs><g id="레이어_2" data-name="레이어 2"><g id="레이어_1-2" data-name="레이어 1"><path class="cls-2" d="M193.31,69.3c-86.7,0-160.5,37.3-158.6,75.9s81.6,78.7,168.3,78.7,156.8-34.6,155.8-74.4S280,69.3,193.31,69.3Z" transform="translate(-11.11)"/><path class="cls-3" d="M104.81,206.6c-20.2-7.7,45.6-33.2,88.1-31.4,37.9,1.7,85.3,18.4,92.9,37.1.8,2.3-94.9,27.5-181-5.7Z" transform="translate(-11.11)"/><path class="cls-4" d="M203.91,350.4c-71.2.6-126.1-29.3-156.3-83.9a270,270,0,0,0,151.8,47.6c49.9.1,104.7-8.7,146.6-43.3C323.41,314.3,280.91,348.1,203.91,350.4Z" transform="translate(-11.11)"/><path class="cls-5" d="M197.51,65c-90.4-2.2-178.9,41-177.7,88.7s89.7,85.2,188.8,83.9,165.7-44,164.7-84.8C372.51,111.9,288,67.2,197.51,65Zm5.3,158.9c-86.7,0-166.4-40.1-168.3-78.7s71.9-75.9,158.6-75.9,164.6,40.5,165.5,80.2S289.61,223.9,202.81,223.9Z" transform="translate(-11.11)"/><g class="cls-6"><path class="cls-7" d="M70.37,151.47c0,70.86,57.6,128.3,128.66,128.3V151.47Z" transform="translate(-11.11)"/><path class="cls-8" d="M196.86,279.77c71.06,0,128.66-57.44,128.66-128.3H196.86Z" transform="translate(-11.11)"/><path class="cls-9" d="M325.52,153.64c0-70.86-57.6-128.3-128.66-128.3v128.3Z" transform="translate(-11.11)"/><path class="cls-10" d="M199,25.34C128,25.34,70.37,82.78,70.37,153.64H199Z" transform="translate(-11.11)"/><ellipse class="cls-1" cx="186.84" cy="152.56" rx="128.67" ry="128.3"/><path class="cls-11" d="M261.19,152.56a63.19,63.19,0,1,0-43.49,59.91A30,30,0,0,0,258,172.25,62.86,62.86,0,0,0,261.19,152.56Z" transform="translate(-11.11)"/><ellipse class="cls-12" cx="186.84" cy="152.56" rx="30.12" ry="30.03"/><ellipse class="cls-13" cx="187.93" cy="151.47" rx="151.9" ry="151.47"/><path class="cls-7" d="M70.37,151.47c0,70.86,57.6,128.3,128.66,128.3V151.47Z" transform="translate(-11.11)"/><path class="cls-8" d="M196.86,279.77c71.06,0,128.66-57.44,128.66-128.3H196.86Z" transform="translate(-11.11)"/><path class="cls-9" d="M325.52,153.64c0-70.86-57.6-128.3-128.66-128.3v128.3Z" transform="translate(-11.11)"/><path class="cls-10" d="M199,25.34C128,25.34,70.37,82.78,70.37,153.64H199Z" transform="translate(-11.11)"/><ellipse class="cls-1" cx="186.84" cy="152.56" rx="128.67" ry="128.3"/><path class="cls-11" d="M261.19,152.56a63.19,63.19,0,1,0-43.49,59.91A30,30,0,0,0,258,172.25,62.86,62.86,0,0,0,261.19,152.56Z" transform="translate(-11.11)"/><ellipse class="cls-12" cx="186.84" cy="152.56" rx="30.12" ry="30.03"/></g><g class="cls-14"><path class="cls-5" d="M198.84,65c-90.4-2.2-178.9,41-177.7,88.7s89.7,85.2,188.8,83.9,165.7-44,164.7-84.8C373.84,111.9,289.34,67.2,198.84,65Zm5.3,158.9c-86.7,0-166.4-40.1-168.3-78.7s71.9-75.9,158.6-75.9,164.6,40.5,165.5,80.2S290.94,223.9,204.14,223.9Z" transform="translate(-11.11)"/></g><path class="cls-15" d="M371.41,198c1.8-15.8,2.8-30.1,2.1-45.2,1,40.9-65.5,83.5-164.7,84.8S21.21,201.4,20,153.7c1.5,14.5-.8-7.1,4.4,43.4,5.4,50.5,87.3,93.3,186.3,92.1,99.1-1.4,156.5-46.2,160.7-91.2Z" transform="translate(-11.11)"/><path class="cls-4" d="M21.11,165.1c.4,4.6,1.4,13.4,3.3,31.8,5.4,50.5,87.3,93.3,186.3,92.1s156.4-46,160.7-91c1-8,1.7-15.6,1.9-23,6.5,7.6,6.6,18,6.9,27.5,1.5,47.7-70.5,102.9-169.7,105.9S12.81,252.8,11.41,205.1c-.3-12.9,2.6-26.1,9.7-40Z" transform="translate(-11.11)"/><path class="cls-16" d="M11.51,206.9c3,61.1,99.8,108.4,198.3,107.2s174-53.4,170.4-108.1c-2.5,46.5-74.3,100.9-169.7,102.6-92.1,1.5-188.3-45.8-198.5-98.9-.2-1-.5-3.6-.5-2.8Z" transform="translate(-11.11)"/></g></g></svg>