<svg xmlns="http://www.w3.org/2000/svg" viewBox="0 0 15 16.82"><defs><style>.cls-1{fill:#efd155;fill-rule:evenodd;}</style></defs><g id="레이어_2" data-name="레이어 2"><g id="레이어_1-2" data-name="레이어 1"><path class="cls-1" d="M14.59,9.89l-.15.06c.41-1.24-1.93-5.91-3-6.82C10.22,2.07,9.61,1.2,8.33.85A.78.78,0,0,0,8.11.73h0L8,.3H8C8.07.22,7.73,0,7.39,0s-.6.11-.61.23h0l.1.46H6.79C5,.82,3.89,2,2.88,3.5,1.28,5.89.7,8.93,1.27,10.9c.25.85-1.36-.19-1.27,0a1.22,1.22,0,0,0,1.37.69c.41.05.16,2.45,4.31,3.71,0,.22-.4.41,0,1.08-.32,0-1.49.5.46.42.71,0-1.49-1.36.57-1.3A10,10,0,0,0,9,15.45c1.5-.44-.38.94.4,1,1.76.15,1-.28.67-.42s-.57-.76-.07-.82a6.71,6.71,0,0,0,4.39-4.72C14.45,10.44,15.59,9.32,14.59,9.89Zm-1.69.48h0Zm0-.17c.38-1.61-.86-5.5-3-7.81C12.09,4.7,13.33,8.59,13,10.2Z"/></g></g></svg>